<?xml version="1.0" standalone="no"?>
<svg xmlns:xlink="http://www.w3.org/1999/xlink" id="wave" style="transform:rotate(180deg); transition: 0.3s" viewBox="0 0 1440 100" version="1.1" xmlns="http://www.w3.org/2000/svg"><defs><linearGradient id="sw-gradient-0" x1="0" x2="0" y1="1" y2="0"><stop stop-color="rgba(224, 245, 238, 1)" offset="0%"/><stop stop-color="rgba(224, 245, 237, 1)" offset="100%"/></linearGradient></defs><path style="transform:translate(0, 0px); opacity:1" fill="url(#sw-gradient-0)" d="M0,60L21.8,55C43.6,50,87,40,131,33.3C174.5,27,218,23,262,30C305.5,37,349,53,393,53.3C436.4,53,480,37,524,33.3C567.3,30,611,40,655,50C698.2,60,742,70,785,73.3C829.1,77,873,73,916,61.7C960,50,1004,30,1047,28.3C1090.9,27,1135,43,1178,41.7C1221.8,40,1265,20,1309,15C1352.7,10,1396,20,1440,31.7C1483.6,43,1527,57,1571,51.7C1614.5,47,1658,23,1702,11.7C1745.5,0,1789,0,1833,6.7C1876.4,13,1920,27,1964,38.3C2007.3,50,2051,60,2095,53.3C2138.2,47,2182,23,2225,13.3C2269.1,3,2313,7,2356,6.7C2400,7,2444,3,2487,5C2530.9,7,2575,13,2618,20C2661.8,27,2705,33,2749,36.7C2792.7,40,2836,40,2880,41.7C2923.6,43,2967,47,3011,51.7C3054.5,57,3098,63,3120,66.7L3141.8,70L3141.8,100L3120,100C3098.2,100,3055,100,3011,100C2967.3,100,2924,100,2880,100C2836.4,100,2793,100,2749,100C2705.5,100,2662,100,2618,100C2574.5,100,2531,100,2487,100C2443.6,100,2400,100,2356,100C2312.7,100,2269,100,2225,100C2181.8,100,2138,100,2095,100C2050.9,100,2007,100,1964,100C1920,100,1876,100,1833,100C1789.1,100,1745,100,1702,100C1658.2,100,1615,100,1571,100C1527.3,100,1484,100,1440,100C1396.4,100,1353,100,1309,100C1265.5,100,1222,100,1178,100C1134.5,100,1091,100,1047,100C1003.6,100,960,100,916,100C872.7,100,829,100,785,100C741.8,100,698,100,655,100C610.9,100,567,100,524,100C480,100,436,100,393,100C349.1,100,305,100,262,100C218.2,100,175,100,131,100C87.3,100,44,100,22,100L0,100Z"/></svg>